<svg xmlns="http://www.w3.org/2000/svg" width="39" height="29"><g fill="#2E7CBF" fill-rule="evenodd"><path fill-rule="nonzero" d="M34.239 0H4.769C2.14 0 0 2.09 0 4.66v19.68C0 26.91 2.138 29 4.77 29h29.46c2.632 0 4.77-2.09 4.77-4.66V4.668C39.008 2.098 36.87 0 34.239 0zm2.59 24.34c0 1.396-1.162 2.531-2.59 2.531H4.769c-1.428 0-2.59-1.135-2.59-2.53V4.667c0-1.396 1.162-2.531 2.59-2.531h29.462c1.428 0 2.59 1.135 2.59 2.53V24.34h.008z"/><path d="M24.418 15.249l9.216-8.38a1.083 1.083 0 00.078-1.51 1.05 1.05 0 00-1.49-.079L19.515 16.846l-2.48-2.245c-.007-.008-.015-.016-.015-.024a1.635 1.635 0 00-.172-.15L6.758 5.273a1.042 1.042 0 00-1.49.086 1.077 1.077 0 00.087 1.51l9.325 8.451-9.286 8.814a1.082 1.082 0 00-.047 1.51c.21.222.491.34.772.34.257 0 .514-.095.717-.284l9.427-8.941 2.557 2.316a1.035 1.035 0 001.403-.008l2.628-2.387 9.372 9.028a1.042 1.042 0 001.489-.04 1.082 1.082 0 00-.039-1.51l-9.255-8.91z"/></g></svg>