<svg xmlns="http://www.w3.org/2000/svg" width="44" height="45"><g fill="#2E7CBF" fill-rule="evenodd"><path d="M26.889 20.255h-3.136v-2.38c0-.73.726-.9 1.065-.9h2.026v-3.212l-2.322-.013c-3.167 0-3.89 2.395-3.89 3.931v2.574h-2.299v3.31h2.299V32.5h3.121v-8.936h2.652l.484-3.31z"/><path fill-rule="nonzero" d="M44 22.5C44 10.074 34.15 0 22 0S0 10.074 0 22.5 9.85 45 22 45s22-10.074 22-22.5zm-42 0C2 11.203 10.954 2.045 22 2.045S42 11.203 42 22.5c0 11.297-8.954 20.455-20 20.455S2 33.797 2 22.5z"/></g></svg>