<svg xmlns="http://www.w3.org/2000/svg" width="46" height="45"><g fill="#2E7CBF"><path d="M23 .5c12.426 0 22.5 9.85 22.5 22s-10.074 22-22.5 22S.5 34.65.5 22.5 10.574.5 23 .5zm0 42c11.297 0 20.455-8.954 20.455-20S34.297 2.5 23 2.5c-11.297 0-20.455 8.954-20.455 20s9.158 20 20.455 20z"/><path d="M11.75 22.283v.22c-.004 1.724.04 3.317.137 4.867.089 1.42.59 2.717 1.452 3.75.831.997 1.955 1.678 3.34 2.023 1.206.3 2.39.317 3.534.332.822.011 1.795.023 2.785.025.994-.002 1.967-.014 2.789-.025 1.144-.015 2.328-.031 3.534-.332 1.385-.345 2.509-1.026 3.34-2.023.861-1.033 1.363-2.33 1.452-3.75.096-1.55.141-3.144.137-4.872a76.064 76.064 0 00-.137-4.868c-.089-1.42-.59-2.717-1.452-3.75-.831-.997-1.955-1.678-3.34-2.023-1.206-.3-2.39-.317-3.534-.332-.822-.011-1.795-.023-2.785-.025h-.004c-.99.002-1.963.014-2.785.025-1.144.015-2.328.03-3.534.332-1.385.345-2.509 1.026-3.34 2.023-.861 1.033-1.363 2.33-1.452 3.75a74.69 74.69 0 00-.137 4.653zm1.758.22c-.004-1.697.04-3.255.134-4.768.067-1.075.423-2.006 1.06-2.769.588-.705 1.4-1.191 2.412-1.444 1.004-.25 2.081-.265 3.123-.279.816-.01 1.783-.022 2.763-.024.98.002 1.947.014 2.763.024 1.042.014 2.12.029 3.123.28 1.013.252 1.824.738 2.413 1.443.636.763.992 1.694 1.06 2.769.093 1.513.137 3.07.133 4.763a73.486 73.486 0 01-.134 4.767c-.067 1.075-.423 2.006-1.06 2.769-.588.705-1.4 1.191-2.412 1.444-1.004.25-2.081.265-3.123.279-.817.01-1.784.022-2.765.024-.977-.002-1.944-.014-2.76-.024-1.043-.014-2.12-.029-3.124-.28-1.013-.252-1.824-.738-2.412-1.443-.637-.763-.993-1.694-1.06-2.769a73.442 73.442 0 01-.134-4.763zm3.999.04c0 2.962 2.464 5.371 5.493 5.371 3.029 0 5.493-2.41 5.493-5.37 0-2.963-2.464-5.372-5.493-5.372-3.029 0-5.493 2.41-5.493 5.371zm9.228 0c0 2.014-1.675 3.653-3.735 3.653-2.06 0-3.735-1.639-3.735-3.653 0-2.014 1.675-3.652 3.735-3.652 2.06 0 3.735 1.638 3.735 3.652zm3.516-5.973c0 .712-.59 1.29-1.318 1.29-.729 0-1.319-.578-1.319-1.29 0-.712.59-1.289 1.319-1.289.728 0 1.318.577 1.318 1.29z"/></g></svg>