<svg xmlns="http://www.w3.org/2000/svg" width="39" height="39"><g fill="#2E7CBF" fill-rule="evenodd"><path fill-rule="nonzero" d="M30.305 24.46c-.785-.815-1.733-1.25-2.738-1.25-.996 0-1.952.427-2.77 1.242l-2.56 2.54c-.21-.113-.421-.218-.624-.323-.291-.145-.567-.282-.802-.427-2.397-1.516-4.576-3.492-6.666-6.048-1.013-1.275-1.693-2.347-2.188-3.436.665-.605 1.28-1.234 1.88-1.839.227-.225.453-.46.68-.685 1.701-1.694 1.701-3.887 0-5.58l-2.211-2.202c-.251-.25-.51-.508-.754-.767-.486-.5-.996-1.016-1.523-1.5C9.244 3.411 8.304 3 7.316 3c-.989 0-1.944.411-2.754 1.185l-.017.017-2.754 2.766a5.89 5.89 0 00-1.758 3.75c-.194 2.355.503 4.548 1.037 5.984 1.313 3.524 3.273 6.79 6.197 10.29 3.548 4.218 7.817 7.548 12.694 9.895 1.863.88 4.35 1.92 7.128 2.097.17.008.349.016.51.016 1.872 0 3.443-.67 4.675-2 .008-.016.024-.024.032-.04.421-.508.907-.968 1.418-1.46.348-.33.704-.677 1.053-1.04.802-.831 1.223-1.799 1.223-2.79 0-1-.43-1.96-1.247-2.767l-4.448-4.443zm2.9 8.492c-.008 0-.008.008 0 0-.316.338-.64.645-.988.983-.527.5-1.061 1.025-1.563 1.613-.819.871-1.783 1.283-3.046 1.283-.122 0-.251 0-.373-.008-2.406-.154-4.641-1.09-6.318-1.888-4.585-2.21-8.611-5.346-11.957-9.322-2.762-3.315-4.609-6.38-5.832-9.67-.754-2.008-1.029-3.572-.908-5.048A3.702 3.702 0 013.338 8.5l2.763-2.75c.397-.371.818-.573 1.231-.573.51 0 .923.307 1.183.565l.024.024c.494.46.964.936 1.458 1.444.251.258.51.516.77.782l2.211 2.202c.859.854.859 1.645 0 2.5-.235.233-.462.467-.697.693a41.65 41.65 0 01-2.033 1.968c-.016.016-.032.024-.04.04-.697.694-.567 1.371-.422 1.83l.025.073c.575 1.387 1.385 2.694 2.616 4.25l.008.008c2.236 2.742 4.593 4.88 7.194 6.517.332.21.672.379.996.54.292.145.567.282.802.427.032.016.065.04.097.057.276.137.535.201.802.201.673 0 1.094-.419 1.231-.556l2.77-2.758c.276-.274.714-.605 1.224-.605.502 0 .915.315 1.167.589l.016.016 4.463 4.443c.835.823.835 1.67.008 2.525z"/><path d="M20.012 9.438c2.385.401 4.552 1.53 6.281 3.26a11.609 11.609 0 013.26 6.282c.1.601.619 1.02 1.21 1.02.073 0 .137-.01.21-.018a1.23 1.23 0 001.01-1.42 14.037 14.037 0 00-3.942-7.603 14.046 14.046 0 00-7.601-3.943 1.235 1.235 0 00-1.42 1.002 1.214 1.214 0 00.992 1.42zm18.97 9.172C38.189 13.964 36 9.734 32.635 6.368 29.27 3.001 25.042.811 20.395.018a1.198 1.198 0 00-1.379.98c-.107.659.33 1.273.988 1.389 4.148.703 7.931 2.671 10.94 5.672 3.008 3.01 4.967 6.794 5.67 10.944.098.587.605.997 1.184.997.071 0 .133-.009.205-.018a1.18 1.18 0 00.979-1.371z"/></g></svg>