<svg xmlns="http://www.w3.org/2000/svg" width="34" height="45"><g fill="#2E7CBF"><path d="M30.95 7.824C27.74 2.852 22.657 0 17 0 11.344 0 6.26 2.852 3.051 7.824c-3.192 4.947-3.93 11.21-1.975 16.743.522 1.51 1.353 2.979 2.463 4.355l12.343 15.524c.279.352.688.554 1.118.554.431 0 .84-.202 1.12-.554l12.339-15.52c1.115-1.384 1.944-2.85 2.463-4.35 1.957-5.542 1.22-11.805-1.972-16.752zm-.78 15.651c-.4 1.156-1.052 2.3-1.938 3.4l-.007.008L17 41 5.77 26.874c-.886-1.099-1.539-2.242-1.942-3.41-1.616-4.576-1.003-9.754 1.64-13.85C8.12 5.504 12.325 3.147 17 3.147c4.677 0 8.88 2.357 11.532 6.467 2.644 4.096 3.258 9.274 1.638 13.861z"/><path d="M18 9c-4.962 0-9 3.813-9 8.5 0 4.687 4.037 8.5 9 8.5s9-3.813 9-8.5c0-4.687-4.038-8.5-9-8.5zm0 13.964c-3.19 0-5.786-2.451-5.786-5.464 0-3.013 2.596-5.464 5.786-5.464 3.19 0 5.786 2.45 5.786 5.464 0 3.013-2.596 5.464-5.786 5.464z"/></g></svg>