<svg xmlns="http://www.w3.org/2000/svg" width="83" height="99"><g fill="none"><path fill="#FFF" d="M3.124 71.241l30.653-28.302L55.15 66.046 24.498 94.348z"/><path fill="#FFF" d="M27.72 45.498s28.355-26.186 33.359-30.787c7.069-6.507 13.7 2.142 7.386 7.974L39.674 49.267"/><path fill="#00B2E9" d="M40.666 50.378l-2.065-2.221 28.792-26.583c1.628-1.508 2.343-3.333 1.946-5-.278-1.23-1.112-2.182-2.264-2.539-1.509-.476-3.296.159-5.043 1.786L28.673 46.609l-2.065-2.222 33.359-30.788c3.455-3.214 6.513-2.898 7.981-2.46 2.184.674 3.773 2.46 4.29 4.76.635 2.778-.398 5.635-2.86 7.896L40.666 50.378z"/><path fill="#FFF" d="M39.634 49.268l12.072-11.15c7.069-6.506 13.7 2.143 7.386 7.975L47.02 57.243"/><path fill="#00B2E9" d="M47.02 58.79c-.397 0-.834-.159-1.112-.476-.556-.635-.517-1.587.08-2.143L58.06 45.022c1.628-1.507 2.343-3.333 1.946-4.999-.278-1.23-1.112-2.182-2.224-2.54-1.51-.475-3.296.16-5.044 1.786L40.666 50.42c-.636.555-1.589.515-2.145-.08-.556-.635-.516-1.587.08-2.143l12.072-11.15c3.455-3.213 6.513-2.896 7.983-2.46 2.184.675 3.772 2.46 4.289 4.762.635 2.777-.398 5.634-2.86 7.895l-12.071 11.15a1.493 1.493 0 01-.993.396z"/><path fill="#FFF" d="M5.64 73.271c-4.29-4.999-.517-13.966 6.79-24.321 4.687-6.626 6.95-20.116 6.95-20.116 2.026-7.577 12.828-5.912 12.43 1.429l-1.509 15.632"/><path fill="#00B2E9" d="M5.64 74.779c-.437 0-.874-.198-1.152-.516-4.329-5.078-2.145-13.648 6.711-26.186 4.409-6.269 6.672-19.362 6.672-19.48 1.35-5 5.64-6.627 9.055-6.111 3.256.516 6.671 3.214 6.393 7.856l-1.548 15.712c-.08.833-.834 1.468-1.668 1.349-.834-.08-1.43-.834-1.35-1.667l1.509-15.632c.158-2.936-1.986-4.325-3.853-4.642-2.184-.357-4.765.674-5.6 3.73-.079.436-2.342 13.767-7.187 20.591-7.824 11.11-10.127 18.648-6.87 22.457a1.511 1.511 0 01-.16 2.142c-.238.278-.595.397-.952.397z"/><path fill="#FFF" d="M47.02 57.243l9.571-8.848c7.07-6.507 13.701 2.142 7.387 7.975l-9.571 8.848"/><path fill="#00B2E9" d="M54.407 66.765c-.397 0-.834-.159-1.112-.476-.556-.635-.516-1.587.08-2.143l9.57-8.847c1.628-1.508 2.343-3.333 1.946-5-.278-1.23-1.112-2.182-2.263-2.539-1.51-.476-3.297.159-5.044 1.786l-9.57 8.847c-.636.556-1.59.516-2.145-.08-.556-.634-.517-1.586.08-2.142l9.57-8.847c3.494-3.214 6.513-2.898 7.982-2.46 2.184.674 3.773 2.46 4.29 4.76.635 2.778-.398 5.635-2.86 7.896l-9.57 8.848c-.2.278-.597.397-.954.397z"/><path fill="#FFF" d="M54.406 65.257l7.07-6.507c7.068-6.507 13.7 2.143 7.386 7.975 0 0-19.142 17.656-28.355 26.186-9.214 8.491-16.402.358-16.402.358"/><path fill="#00B2E9" d="M32.008 98.268h-.556c-5.043-.238-8.3-3.889-8.419-4.008-.556-.634-.476-1.587.12-2.142.635-.556 1.588-.476 2.144.119.04.04 2.581 2.817 6.354 3.015 2.62.08 5.282-1.031 7.863-3.451l28.355-26.187c2.581-2.38 2.502-5.158 1.072-6.665-1.151-1.27-3.534-1.786-6.433.873l-7.07 6.506c-.635.556-1.588.516-2.144-.079-.556-.635-.516-1.587.08-2.142l7.069-6.507c4.21-3.889 8.498-3.095 10.722-.715 2.383 2.539 2.74 7.26-1.27 10.95L41.538 94.022c-3.058 2.817-6.274 4.246-9.53 4.246z"/><path fill="#FFF" d="M24.106 93.228s-1.112 1.032-2.502 2.302c-1.39 1.27-3.296 1.666-5.004-.199-1.708-1.865-11.517-12.418-13.582-14.679-2.065-2.222-.913-4.166 0-5 .914-.872 2.621-2.42 2.621-2.42"/><path fill="#00B2E9" d="M19.181 98.148c-1.31 0-2.581-.595-3.693-1.785L1.906 81.682C.357 80.016.238 78.429.397 77.398c.238-1.429 1.112-2.42 1.589-2.857l2.581-2.42 2.065 2.221-2.581 2.38c-.12.12-.556.556-.675 1.111-.08.516.158 1.111.714 1.746l13.582 14.68c.596.635 1.51 1.349 2.86.119l2.501-2.301c.636-.556 1.589-.516 2.145.08.556.634.516 1.586-.08 2.142l-2.501 2.3c-1.033 1.032-2.224 1.548-3.416 1.548zm53.414-85.74c-.278 0-.516-.119-.715-.317a.984.984 0 01.04-1.35l4.448-4.126a.985.985 0 011.35.04.984.984 0 01-.04 1.35L73.23 12.13c-.158.199-.397.278-.635.278zm-14.932-1.627c-.278 0-.516-.119-.715-.317l-4.13-4.444a.982.982 0 01.04-1.349.985.985 0 011.35.04l4.13 4.444a.982.982 0 01-.04 1.349.94.94 0 01-.635.277zM81.65 20.78s-.04 0 0 0l-6.077-.238c-.516-.04-.953-.476-.913-.992.04-.516.477-.992.993-.913l6.036.238c.516.04.953.476.914.992 0 .516-.437.913-.953.913zm-27.68-4.523c-.08 0-.16 0-.199-.04l-5.917-1.389a.957.957 0 11.437-1.864l5.917 1.388c.516.12.834.635.715 1.15a.97.97 0 01-.953.755zm22.477 14.798c-.278 0-.516-.118-.715-.316l-4.13-4.444a.984.984 0 01.04-1.35.986.986 0 011.35.04l4.13 4.444a.983.983 0 01-.04 1.35c-.158.198-.397.277-.635.277zm-8.975 4.762a.977.977 0 01-.953-.833l-.914-5.991a.941.941 0 01.795-1.071c.516-.04.993.277 1.072.793l.913 5.991a.94.94 0 01-.794 1.071c-.04.04-.08.04-.119.04zm-2.78-27.019c-.556-.04-.993-.476-.953-.992l.238-6.031c0-.516.477-.913.993-.913.516.04.953.477.913.992l-.238 6.031c0 .476-.437.913-.953.913z"/></g></svg>