<svg xmlns="http://www.w3.org/2000/svg" width="46" height="45"><g fill="none" fill-rule="evenodd"><path fill="#2E7CBF" fill-rule="nonzero" d="M23 .5c12.426 0 22.5 9.85 22.5 22s-10.074 22-22.5 22S.5 34.65.5 22.5 10.574.5 23 .5zm0 42c11.297 0 20.455-8.954 20.455-20S34.297 2.5 23 2.5c-11.297 0-20.455 8.954-20.455 20s9.158 20 20.455 20z"/><path d="M36 26.075v-8.163c-.013-.098-.037-.197-.049-.283-.108-.886-.398-1.686-.918-2.4C33.958 13.738 32.509 13 30.698 13H16.289c-.132 0-.265 0-.386.012-2.03.099-3.889 1.478-4.553 3.423-.17.48-.242.997-.35 1.49v8.163c.012.098.036.197.048.283.109.886.398 1.686.918 2.4C13.041 30.262 14.49 31 16.301 31H30.71c.133 0 .265 0 .386-.012 2.03-.099 3.889-1.478 4.553-3.423.17-.48.242-.997.35-1.49zm-15.995-4.571v-3.085c0-.408.149-.512.516-.338 2.064 1.001 4.14 2.003 6.203 3.015.115.059.276.198.276.291-.012.117-.15.268-.264.326-2.064 1.072-4.128 2.13-6.192 3.19-.379.198-.54.093-.54-.326-.01-1.024 0-2.049 0-3.073z" stroke="#2E7CBF" stroke-width="2"/></g></svg>